<mxfile host="app.diagrams.net" agent="Mozilla/5.0 (Windows NT 10.0; Win64; x64) AppleWebKit/537.36 (KHTML, like Gecko) Chrome/136.0.0.0 Safari/537.36" version="28.0.7">
  <diagram name="Página-1" id="tOL0amXb9lVFytn4Z0ZQ">
    <mxGraphModel dx="1864" dy="630" grid="1" gridSize="10" guides="1" tooltips="1" connect="1" arrows="1" fold="1" page="1" pageScale="1" pageWidth="827" pageHeight="1169" math="0" shadow="0">
      <root>
        <mxCell id="0" />
        <mxCell id="1" parent="0" />
        <mxCell id="s20IG0kOvbe76H-5vyEP-17" style="edgeStyle=orthogonalEdgeStyle;rounded=0;orthogonalLoop=1;jettySize=auto;html=1;entryX=0;entryY=0.75;entryDx=0;entryDy=0;" edge="1" parent="1" source="s20IG0kOvbe76H-5vyEP-1" target="s20IG0kOvbe76H-5vyEP-4">
          <mxGeometry relative="1" as="geometry" />
        </mxCell>
        <mxCell id="s20IG0kOvbe76H-5vyEP-24" style="edgeStyle=orthogonalEdgeStyle;rounded=0;orthogonalLoop=1;jettySize=auto;html=1;entryX=0;entryY=0.75;entryDx=0;entryDy=0;" edge="1" parent="1" source="s20IG0kOvbe76H-5vyEP-1" target="s20IG0kOvbe76H-5vyEP-19">
          <mxGeometry relative="1" as="geometry">
            <Array as="points">
              <mxPoint x="-65" y="180" />
              <mxPoint x="-40" y="180" />
              <mxPoint x="-40" y="203" />
            </Array>
          </mxGeometry>
        </mxCell>
        <mxCell id="s20IG0kOvbe76H-5vyEP-1" value="Administrador" style="shape=umlActor;verticalLabelPosition=bottom;verticalAlign=top;html=1;outlineConnect=0;" vertex="1" parent="1">
          <mxGeometry x="-80" y="40" width="30" height="60" as="geometry" />
        </mxCell>
        <mxCell id="s20IG0kOvbe76H-5vyEP-26" style="edgeStyle=orthogonalEdgeStyle;rounded=0;orthogonalLoop=1;jettySize=auto;html=1;entryX=0.5;entryY=0;entryDx=0;entryDy=0;" edge="1" parent="1" source="s20IG0kOvbe76H-5vyEP-2" target="s20IG0kOvbe76H-5vyEP-9">
          <mxGeometry relative="1" as="geometry" />
        </mxCell>
        <mxCell id="s20IG0kOvbe76H-5vyEP-2" value="Gestão de produto" style="rounded=0;whiteSpace=wrap;html=1;" vertex="1" parent="1">
          <mxGeometry x="280" y="35" width="100" height="50" as="geometry" />
        </mxCell>
        <mxCell id="s20IG0kOvbe76H-5vyEP-16" style="edgeStyle=orthogonalEdgeStyle;rounded=0;orthogonalLoop=1;jettySize=auto;html=1;" edge="1" parent="1" source="s20IG0kOvbe76H-5vyEP-4" target="s20IG0kOvbe76H-5vyEP-2">
          <mxGeometry relative="1" as="geometry" />
        </mxCell>
        <mxCell id="s20IG0kOvbe76H-5vyEP-4" value="inserir as informações do produto" style="text;html=1;align=center;verticalAlign=middle;whiteSpace=wrap;rounded=0;" vertex="1" parent="1">
          <mxGeometry x="-10" y="50" width="110" height="20" as="geometry" />
        </mxCell>
        <mxCell id="s20IG0kOvbe76H-5vyEP-29" style="edgeStyle=orthogonalEdgeStyle;rounded=0;orthogonalLoop=1;jettySize=auto;html=1;entryX=0.5;entryY=1;entryDx=0;entryDy=0;" edge="1" parent="1" source="s20IG0kOvbe76H-5vyEP-8" target="s20IG0kOvbe76H-5vyEP-28">
          <mxGeometry relative="1" as="geometry" />
        </mxCell>
        <mxCell id="s20IG0kOvbe76H-5vyEP-8" value="Base de dados" style="rounded=0;whiteSpace=wrap;html=1;" vertex="1" parent="1">
          <mxGeometry x="270" y="470" width="120" height="60" as="geometry" />
        </mxCell>
        <mxCell id="s20IG0kOvbe76H-5vyEP-9" value="inserir no banco as informações" style="text;html=1;align=center;verticalAlign=middle;whiteSpace=wrap;rounded=0;" vertex="1" parent="1">
          <mxGeometry x="560" y="255" width="60" height="30" as="geometry" />
        </mxCell>
        <mxCell id="s20IG0kOvbe76H-5vyEP-32" style="edgeStyle=orthogonalEdgeStyle;rounded=0;orthogonalLoop=1;jettySize=auto;html=1;entryX=0.5;entryY=0;entryDx=0;entryDy=0;" edge="1" parent="1" source="s20IG0kOvbe76H-5vyEP-12" target="s20IG0kOvbe76H-5vyEP-31">
          <mxGeometry relative="1" as="geometry">
            <mxPoint x="130" y="330" as="targetPoint" />
            <Array as="points">
              <mxPoint x="131" y="290" />
            </Array>
          </mxGeometry>
        </mxCell>
        <mxCell id="s20IG0kOvbe76H-5vyEP-12" value="Cadastro Usuario" style="rounded=0;whiteSpace=wrap;html=1;" vertex="1" parent="1">
          <mxGeometry x="270" y="240" width="120" height="60" as="geometry" />
        </mxCell>
        <mxCell id="s20IG0kOvbe76H-5vyEP-25" style="edgeStyle=orthogonalEdgeStyle;rounded=0;orthogonalLoop=1;jettySize=auto;html=1;entryX=0;entryY=0.5;entryDx=0;entryDy=0;" edge="1" parent="1" source="s20IG0kOvbe76H-5vyEP-19" target="s20IG0kOvbe76H-5vyEP-12">
          <mxGeometry relative="1" as="geometry" />
        </mxCell>
        <mxCell id="s20IG0kOvbe76H-5vyEP-19" value="Inserir as informações do usuario" style="text;html=1;align=center;verticalAlign=middle;whiteSpace=wrap;rounded=0;" vertex="1" parent="1">
          <mxGeometry x="15" y="180" width="60" height="30" as="geometry" />
        </mxCell>
        <mxCell id="s20IG0kOvbe76H-5vyEP-27" style="edgeStyle=orthogonalEdgeStyle;rounded=0;orthogonalLoop=1;jettySize=auto;html=1;entryX=1.003;entryY=0.627;entryDx=0;entryDy=0;entryPerimeter=0;" edge="1" parent="1" source="s20IG0kOvbe76H-5vyEP-9" target="s20IG0kOvbe76H-5vyEP-8">
          <mxGeometry relative="1" as="geometry">
            <Array as="points">
              <mxPoint x="590" y="508" />
            </Array>
          </mxGeometry>
        </mxCell>
        <mxCell id="s20IG0kOvbe76H-5vyEP-30" style="edgeStyle=orthogonalEdgeStyle;rounded=0;orthogonalLoop=1;jettySize=auto;html=1;entryX=0.5;entryY=1;entryDx=0;entryDy=0;" edge="1" parent="1" source="s20IG0kOvbe76H-5vyEP-28" target="s20IG0kOvbe76H-5vyEP-12">
          <mxGeometry relative="1" as="geometry" />
        </mxCell>
        <mxCell id="s20IG0kOvbe76H-5vyEP-28" value="Gravado com sucesso" style="text;html=1;align=center;verticalAlign=middle;whiteSpace=wrap;rounded=0;" vertex="1" parent="1">
          <mxGeometry x="265" y="360" width="130" height="30" as="geometry" />
        </mxCell>
        <mxCell id="s20IG0kOvbe76H-5vyEP-33" style="edgeStyle=orthogonalEdgeStyle;rounded=0;orthogonalLoop=1;jettySize=auto;html=1;entryX=0;entryY=0.5;entryDx=0;entryDy=0;" edge="1" parent="1" source="s20IG0kOvbe76H-5vyEP-31" target="s20IG0kOvbe76H-5vyEP-8">
          <mxGeometry relative="1" as="geometry">
            <Array as="points">
              <mxPoint x="130" y="500" />
            </Array>
          </mxGeometry>
        </mxCell>
        <mxCell id="s20IG0kOvbe76H-5vyEP-31" value="Gravar as informações no banco" style="text;html=1;align=center;verticalAlign=middle;whiteSpace=wrap;rounded=0;" vertex="1" parent="1">
          <mxGeometry x="100" y="360" width="60" height="30" as="geometry" />
        </mxCell>
      </root>
    </mxGraphModel>
  </diagram>
</mxfile>
